<?xml version="1.0" encoding="utf-8"?>
<!-- Svg Vector Icons : http://www.onlinewebfonts.com/icon -->
<!DOCTYPE svg PUBLIC "-//W3C//DTD SVG 1.1//EN" "http://www.w3.org/Graphics/SVG/1.1/DTD/svg11.dtd">
<svg version="1.1" xmlns="http://www.w3.org/2000/svg" xmlns:xlink="http://www.w3.org/1999/xlink" x="0px" y="0px" viewBox="0 0 1000 1000" enable-background="new 0 0 1000 1000" xml:space="preserve">
<metadata> Svg Vector Icons : http://www.onlinewebfonts.com/icon </metadata>
<g><path fill="#ffffff" d="M643.9,794H47.7C26.9,794,10,776.6,10,755.3V244.7c0-21.3,16.9-38.7,37.7-38.7h596.2c20.8,0,37.7,17.4,37.7,38.7v510.5C681.6,776.6,664.7,794,643.9,794z M47.7,238.5c-2.9,0-5.3,2.8-5.3,6.1v510.5c0,3.4,2.4,6.1,5.3,6.1h596.2c3,0,5.3-2.8,5.3-6.1V244.7c0-3.4-2.4-6.1-5.3-6.1L47.7,238.5L47.7,238.5z"/><path fill="#ffffff" d="M990,741.1h-46.3L702.5,600.8V399.2l241.3-140.2H990V741.1z M952.3,708.5h5.3v-417h-5.3L734.8,418v164L952.3,708.5z"/></g>
</svg>
