<?xml version="1.0" encoding="utf-8"?>
<!-- Svg Vector Icons : http://www.onlinewebfonts.com/icon -->
<!DOCTYPE svg PUBLIC "-//W3C//DTD SVG 1.1//EN" "http://www.w3.org/Graphics/SVG/1.1/DTD/svg11.dtd">
<svg version="1.1" xmlns="http://www.w3.org/2000/svg" xmlns:xlink="http://www.w3.org/1999/xlink" x="0px" y="0px" viewBox="0 0 1000 1000" enable-background="new 0 0 1000 1000" xml:space="preserve">
<metadata> Svg Vector Icons : http://www.onlinewebfonts.com/icon </metadata>
<g><path d="M429.8,10C486,327.2,218.2,320.6,220,640c1.5,261.4,229.6,350,280.3,350c50.7,0,249.1-56.9,277.7-350C801.2,401.2,619.4,150,429.8,10z M500.3,972.5c0,0-89-78.3-89-175c0-96.7,88.7-175,88.7-175s88.2,78.3,88.2,175C588.2,894.2,500.3,972.5,500.3,972.5z M743.1,636.6c-6.2,63.4-21.2,119.3-44.7,166c-19.1,38.1-43.9,70.3-73.7,95.7c-14.3,12.2-29,22.1-43.2,30.1c22-34.9,41.8-80.3,41.8-130.9c0-111.1-95.9-197.5-100-201.2l-23.2-20.6l-23.2,20.5c-4.1,3.6-100.5,90.1-100.5,201.2c0,47.8,17.9,91,38.6,125c-16.1-9.5-33.3-21.3-50.3-36c-32.1-27.7-57.7-60.4-75.9-97.1c-22-44.3-33.3-94.6-33.7-149.6c-0.8-140,52.7-209.4,109.3-283c53.7-69.8,109-141.5,108.2-267.1c71.1,63.1,134,137.9,181.2,216.3C722.2,419.8,753.1,534.2,743.1,636.6z"/></g>
</svg>