<?xml version="1.0" encoding="utf-8"?>
<!-- Svg Vector Icons : http://www.onlinewebfonts.com/icon -->
<!DOCTYPE svg PUBLIC "-//W3C//DTD SVG 1.1//EN" "http://www.w3.org/Graphics/SVG/1.1/DTD/svg11.dtd">
<svg version="1.1" xmlns="http://www.w3.org/2000/svg" xmlns:xlink="http://www.w3.org/1999/xlink" x="0px" y="0px" viewBox="0 0 1000 1000" enable-background="new 0 0 1000 1000" xml:space="preserve">
<metadata> Svg Vector Icons : http://www.onlinewebfonts.com/icon </metadata>
<g><path d="M499.4,923l-35-26.9C258.4,736.5,133.8,640.5,63,515.1c-52.1-92-66-183.2-40.7-263c21.2-66.8,70-120.5,136.8-151.5C193.2,85.1,230.7,77,269.8,77c93.6,0,182.4,46.4,229.6,118.9C547.5,123.4,636.2,77,729.8,77c39.1,0,76.5,8.1,110.7,23.6c66.8,30.9,115.6,84.7,136.8,151.5c26.1,79.8,11.4,171-40.7,263C865.8,640.5,740.4,737.4,533.6,897L499.4,923z M269.8,113.6c-34.2,0-66,6.5-95.3,20.4c-57,26.9-99.3,72.5-117.3,129.5c-22.8,69.2-9.8,150.6,37.5,233.7C162.3,616,284.4,711.3,488,867.6l12.2,9.8l11.4-9C715.2,711.3,837.3,616.8,904.9,498c47.2-83.1,60.3-163.7,37.5-233.7c-18.7-57-60.3-102.6-117.3-129.5c-29.3-13.8-61.9-20.4-95.3-20.4c-92,0-177.5,51.3-213.3,127.8l-17.1,35l-17.1-35.8C447.3,164.9,361.8,113.6,269.8,113.6z"/></g>
</svg>