<?xml version="1.0" encoding="utf-8"?>
<!-- Svg Vector Icons : http://www.onlinewebfonts.com/icon -->
<!DOCTYPE svg PUBLIC "-//W3C//DTD SVG 1.1//EN" "http://www.w3.org/Graphics/SVG/1.1/DTD/svg11.dtd">
<svg version="1.1" xmlns="http://www.w3.org/2000/svg" xmlns:xlink="http://www.w3.org/1999/xlink" x="0px" y="0px" viewBox="0 0 1000 1000" enable-background="new 0 0 1000 1000" xml:space="preserve">
<metadata> Svg Vector Icons : http://www.onlinewebfonts.com/icon </metadata>
<g><path d="M815,318.2C815,148,670.4,10,500,10S185,148,185,318.4c0,67.8,28.9,129.1,66.1,181.6h-0.7c23.8,32.8,46.8,60.6,68.9,98.4c48.1,82.7,40.7,162.5,40.9,178.5v3.1h280v-3.1c0-19.5-7.9-95.8,40.3-178.5c22.1-37.8,45.1-65.6,68.9-98.4h-0.2C786.1,447.5,815,386.3,815,318.2z M707.8,496.5c-1.3,1.8-2.4,3.3-3.7,5c-17.7,23.8-36.1,48.6-54,79c-37.8,65-44.6,126.7-45.5,164.3H570V500l70-140h-36.3L535,500v245h-70V500l-68.7-140H360l70,140v245h-34.8c-1.1-37.6-8.5-100-45.7-164.1c-9.8-16.8-19.9-32.8-30-45.9h0.4l-40.7-56C244.7,431.7,220,376,220,318c0-73.1,35-141.8,86.6-193.4C358.3,73,426.9,44.3,500,44.3c73.1,0,141.7,28.7,193.4,80.3C745,176.3,780,244.9,780,318c0,58-24.7,113.5-59.3,160.8L707.8,496.5z"/><path d="M430,955h140v35H430V955z"/><path d="M395,885h210v35H395V885z"/><path d="M395,815h210v35H395V815z"/></g>
</svg>