<?xml version="1.0" encoding="utf-8"?>
<!-- Svg Vector Icons : http://www.onlinewebfonts.com/icon -->
<!DOCTYPE svg PUBLIC "-//W3C//DTD SVG 1.1//EN" "http://www.w3.org/Graphics/SVG/1.1/DTD/svg11.dtd">
<svg version="1.1" xmlns="http://www.w3.org/2000/svg" xmlns:xlink="http://www.w3.org/1999/xlink" x="0px" y="0px" viewBox="0 0 1000 1000" enable-background="new 0 0 1000 1000" xml:space="preserve">
<metadata> Svg Vector Icons : http://www.onlinewebfonts.com/icon </metadata>
<g><path fill="#ffffff" d="M909.5,429.9c-7.1-62.6-64.2-113.5-127.2-113.5h-67.7v-81.8c0-124.7-89-226.2-213.7-226.2c-124.7,0-215.6,101.5-215.6,226.2v81.8h-73.5c-63,0-120,51-127,112.2L10.8,911.8c-2.9,25.4,2.1,45.5,14.8,59.7c11.9,13.3,29.3,20.1,51.5,20.1h837.2c31.6,0,49.6-12.7,59.3-23.3c8.9-9.8,18.9-26.9,16-55.5L909.5,429.9z M346.6,234.6c0-90.9,63.3-164.8,154.3-164.8c90.9,0,152.3,74,152.3,164.8v81.8H346.6V234.6z M917,929.7l-836.2,0.4c-5.3,0-10.5-2.9-9.3-10.2l74.1-483.1c3.7-32,34-59.1,66.3-59.1h73.5v70.8c-18.1,10.6-30.7,29.5-30.7,51.9c0,33.9,27.4,61.3,61.3,61.3c33.9,0,61.3-27.4,61.3-61.3c0-22.4-12.7-41.2-30.7-51.9v-70.9h306.5v70.9c-17.8,10.7-30.4,29.5-30.4,51.9c0,33.9,27.4,61.3,61.3,61.3c33.8,0,61.3-27.4,61.3-61.3c0-22.5-12.7-41.2-30.7-51.9v-70.8h67.7c32.3,0,62.6,27.2,66.5,60.8l79.9,482.3C929.1,924.8,925.9,929.7,917,929.7z"/></g>
</svg>
